# xmcd
#
# Track frame offsets: 
#        150
#        14596
#        26907
#        42772
#        60188
#        75604
#        95464
#        112429
#        127248
#        141784
#        159954
#        171838
#        187215
#        202816
#
# Disc length: 2870 seconds
#
# Revision: 3
# Processed by: cddbd v1.5.2PL0 Copyright (c) Steve Scherf et al.
# Submitted via: ExactAudioCopyFreeDBPlugin 1.0
#
DISCID=c20b340e
DTITLE=Various Artist - Schlager der 70er: Das sind die besten Hits!
DYEAR=2002
DGENRE=Schlager
TTITLE0=Daliah Lavi - Liebeslied jener Sommernacht
TTITLE1=Tony - Nuevo Laredo
TTITLE2=Truck Stop - Ich möcht' so gern Dave Dudley hör'n
TTITLE3=Vicky Leandros - Theo, wir fahr'n nach Lodz
TTITLE4=Roy Black and Anita - Schön ist es auf der Welt zu sein
TTITLE5=Marianne Rosenberg - Herz aus Glas
TTITLE6=Milva - Zusammenleben
TTITLE7=Margot Werner - So ein Mann
TTITLE8=Volker Lechtenbrink - Der Macher
TTITLE9=Peter, Sue and Marc - Cindy
TTITLE10=Mary Roos - Samba d'amour
TTITLE11=Siw Inger - Komm und spiel mit mir
TTITLE12=Curd Jürgens - 60 Jahre - und kein bißchen Weise
TTITLE13=Barry Ryan - Zeit macht nur vor dem Teufel halt
EXTD=
EXTT0=
EXTT1=
EXTT2=
EXTT3=
EXTT4=
EXTT5=
EXTT6=
EXTT7=
EXTT8=
EXTT9=
EXTT10=
EXTT11=
EXTT12=
EXTT13=
PLAYORDER=
